<svg width="41" height="40" viewBox="0 0 41 40" fill="none" xmlns="http://www.w3.org/2000/svg">
<g clip-path="url(#clip0_1_4299)">
<path d="M28.7196 12.5533C29.3711 11.9018 30.4279 11.9018 31.0794 12.5533C31.7309 13.205 31.7309 14.2617 31.0794 14.9132L18.547 27.446C17.8953 28.0975 16.8385 28.0975 16.187 27.446L9.92064 21.1796C9.26915 20.5281 9.26915 19.4714 9.92064 18.8199C10.5724 18.1682 11.6291 18.1682 12.2806 18.8199L17.367 23.9064L28.7196 12.5533ZM20.4999 0C26.0219 0 31.0225 2.23895 34.6418 5.85824C38.261 9.47731 40.5 14.4781 40.5 19.9999C40.5 25.5226 38.2613 30.5225 34.6418 34.1418C31.0225 37.761 26.0219 40 20.4999 40C14.9774 40 9.97731 37.7613 6.35824 34.1418C2.7385 30.5225 0.5 25.5226 0.5 19.9999C0.5 14.4781 2.73895 9.47731 6.35824 5.85824C9.97731 2.2385 14.9774 0 20.4999 0ZM32.282 8.21796C29.267 5.20316 25.1013 3.33819 20.4999 3.33819C15.8983 3.33819 11.7325 5.20316 8.71796 8.21796C5.70316 11.2328 3.83819 15.3987 3.83819 19.9999C3.83819 24.6017 5.70316 28.7675 8.71796 31.782C11.7325 34.7968 15.8983 36.6616 20.4999 36.6616C25.1013 36.6616 29.267 34.7968 32.282 31.782C35.2968 28.7675 37.1616 24.6017 37.1616 19.9999C37.1616 15.3987 35.2968 11.2328 32.282 8.21796Z" fill="url(#paint0_linear_1_4299)"/>
</g>
<defs>
<linearGradient id="paint0_linear_1_4299" x1="2.05224" y1="-1.39662e-05" x2="41.3364" y2="0.83906" gradientUnits="userSpaceOnUse">
<stop stop-color="#FF5A45"/>
<stop offset="1" stop-color="#DC3E85"/>
</linearGradient>
<clipPath id="clip0_1_4299">
<rect width="40" height="40" fill="white" transform="translate(0.5)"/>
</clipPath>
</defs>
</svg>
